# xmcd CD database file
#
# Track frame offsets:
#	150
#	19930
#	29217
#	56871
#	76164
#	95438
#	115516
#	125101
#	153053
#	172532
#	203204
#
# Disc length: 2746 seconds
#
# Revision: 0
# Processed by: cddbd v1.5.1PL2 Copyright (c) Steve Scherf et al.
# Submitted via: CDex 1.51
#
DISCID=860ab80b
DTITLE=Strawberry・Crash♪ - Strawberry・Crash♪
DYEAR=2004
DGENRE=Comedy
TTITLE0=AS FOR ONE DAY
TTITLE1=晴れ　雨　のち　スキ
TTITLE2=女子かしまし物語
TTITLE3=シャボン玉
TTITLE4=Go Girl〜恋のヴィクトリー〜
TTITLE5=AS FOR ONE DAY（ボーナストラック）
TTITLE6=晴れ　雨　のち　スキ（ボーナストラック）
TTITLE7=女子かしまし物語（ボーナストラック）
TTITLE8=シャボン玉（ボーナストラック）
TTITLE9=Go Girl〜恋のヴィクトリー〜（ボーナストラック）
TTITLE10=画像集
EXTD=YEAR: 2004
EXTT0=
EXTT1=
EXTT2=
EXTT3=
EXTT4=
EXTT5=
EXTT6=
EXTT7=
EXTT8=
EXTT9=
EXTT10=
PLAYORDER=
